<svg width="29" height="15" viewBox="0 0 29 15" fill="none" xmlns="http://www.w3.org/2000/svg">
<path fill-rule="evenodd" clip-rule="evenodd" d="M6.9773 14.6152C5.86098 14.6149 4.76516 14.2689 3.80417 13.6132C2.84319 12.9575 2.05224 12.0162 1.51384 10.8874C0.975442 9.75858 0.70932 8.48372 0.743237 7.19576C0.777153 5.9078 1.10987 4.65394 1.70667 3.56499C2.30346 2.47603 3.14248 1.59188 4.1362 1.00476C5.12991 0.417645 6.24191 0.149076 7.35619 0.227073C8.47047 0.305069 9.54621 0.726773 10.4712 1.44819C11.3961 2.16961 12.1365 3.16431 12.6149 4.32853H25.692L28.3655 7.41453L25.692 10.5005L23.9097 8.4432L22.1273 10.5005L20.3449 8.4432L18.5626 10.5005L16.7802 8.4432L14.9979 10.5005H12.6149C12.1089 11.7319 11.3105 12.7722 10.3125 13.5006C9.31457 14.229 8.15802 14.6155 6.9773 14.6152ZM5.19495 9.47186C5.66766 9.47186 6.12101 9.25511 6.45527 8.86928C6.78952 8.48346 6.9773 7.96017 6.9773 7.41453C6.9773 6.86889 6.78952 6.3456 6.45527 5.95978C6.12101 5.57395 5.66766 5.3572 5.19495 5.3572C4.72224 5.3572 4.26889 5.57395 3.93464 5.95978C3.60038 6.3456 3.4126 6.86889 3.4126 7.41453C3.4126 7.96017 3.60038 8.48346 3.93464 8.86928C4.26889 9.25511 4.72224 9.47186 5.19495 9.47186Z" fill="white"/>
</svg>
